<svg width="30" height="23" viewBox="0 0 30 23" fill="none" xmlns="http://www.w3.org/2000/svg">
<path d="M11.25 11.5C12.7418 11.5 14.1726 10.8942 15.2275 9.81586C16.2824 8.73753 16.875 7.27499 16.875 5.75C16.875 4.22501 16.2824 2.76247 15.2275 1.68414C14.1726 0.605802 12.7418 0 11.25 0C9.75816 0 8.32742 0.605802 7.27252 1.68414C6.21763 2.76247 5.625 4.22501 5.625 5.75C5.625 7.27499 6.21763 8.73753 7.27252 9.81586C8.32742 10.8942 9.75816 11.5 11.25 11.5ZM15 5.75C15 6.76666 14.6049 7.74169 13.9017 8.46058C13.1984 9.17947 12.2446 9.58333 11.25 9.58333C10.2554 9.58333 9.30161 9.17947 8.59835 8.46058C7.89509 7.74169 7.5 6.76666 7.5 5.75C7.5 4.73334 7.89509 3.75831 8.59835 3.03942C9.30161 2.32053 10.2554 1.91667 11.25 1.91667C12.2446 1.91667 13.1984 2.32053 13.9017 3.03942C14.6049 3.75831 15 4.73334 15 5.75ZM22.5 21.0833C22.5 23 20.625 23 20.625 23H1.875C1.875 23 0 23 0 21.0833C0 19.1667 1.875 13.4167 11.25 13.4167C20.625 13.4167 22.5 19.1667 22.5 21.0833ZM20.625 21.0757C20.6231 20.6042 20.3363 19.1858 19.065 17.8863C17.8425 16.6367 15.5419 15.3333 11.25 15.3333C6.95813 15.3333 4.6575 16.6367 3.435 17.8863C2.16375 19.1858 1.87875 20.6042 1.875 21.0757H20.625Z" fill="white"/>
<path fill-rule="evenodd" clip-rule="evenodd" d="M25.3125 5.75C25.5611 5.75 25.7996 5.85097 25.9754 6.03069C26.1512 6.21041 26.25 6.45417 26.25 6.70833V9.58333H29.0625C29.3111 9.58333 29.5496 9.6843 29.7254 9.86402C29.9012 10.0437 30 10.2875 30 10.5417C30 10.7958 29.9012 11.0396 29.7254 11.2193C29.5496 11.399 29.3111 11.5 29.0625 11.5H26.25V14.375C26.25 14.6292 26.1512 14.8729 25.9754 15.0526C25.7996 15.2324 25.5611 15.3333 25.3125 15.3333C25.0639 15.3333 24.8254 15.2324 24.6496 15.0526C24.4738 14.8729 24.375 14.6292 24.375 14.375V11.5H21.5625C21.3139 11.5 21.0754 11.399 20.8996 11.2193C20.7238 11.0396 20.625 10.7958 20.625 10.5417C20.625 10.2875 20.7238 10.0437 20.8996 9.86402C21.0754 9.6843 21.3139 9.58333 21.5625 9.58333H24.375V6.70833C24.375 6.45417 24.4738 6.21041 24.6496 6.03069C24.8254 5.85097 25.0639 5.75 25.3125 5.75Z" fill="white"/>
</svg>
