<svg width="23" height="30" viewBox="0 0 23 30" fill="none" xmlns="http://www.w3.org/2000/svg">
<path fill-rule="evenodd" clip-rule="evenodd" d="M16.1887 13.3987C16.2652 13.4858 16.3259 13.5893 16.3673 13.7032C16.4087 13.8171 16.43 13.9392 16.43 14.0625C16.43 14.1858 16.4087 14.3079 16.3673 14.4218C16.3259 14.5357 16.2652 14.6391 16.1887 14.7262L11.2601 20.3512C11.1838 20.4385 11.0932 20.5078 10.9934 20.5551C10.8936 20.6023 10.7866 20.6266 10.6785 20.6266C10.5705 20.6266 10.4635 20.6023 10.3637 20.5551C10.2639 20.5078 10.1733 20.4385 10.097 20.3512L7.63268 17.5387C7.55631 17.4516 7.49572 17.3481 7.45439 17.2342C7.41306 17.1203 7.39178 16.9982 7.39178 16.875C7.39178 16.7517 7.41306 16.6296 7.45439 16.5157C7.49572 16.4019 7.55631 16.2984 7.63268 16.2112C7.78692 16.0352 7.99612 15.9363 8.21425 15.9363C8.32226 15.9363 8.42921 15.9606 8.529 16.0077C8.62878 16.0549 8.71945 16.1241 8.79582 16.2112L10.6785 18.3618L15.0255 13.3987C15.1018 13.3114 15.1925 13.2421 15.2923 13.1949C15.3921 13.1476 15.4991 13.1233 15.6071 13.1233C15.7152 13.1233 15.8221 13.1476 15.9219 13.1949C16.0217 13.2421 16.1124 13.3114 16.1887 13.3987Z" fill="white"/>
<path d="M4.92857 2.8125H3.28571C2.41429 2.8125 1.57855 3.20759 0.962363 3.91085C0.346173 4.61411 0 5.56794 0 6.5625V26.25C0 27.2446 0.346173 28.1984 0.962363 28.9016C1.57855 29.6049 2.41429 30 3.28571 30H19.7143C20.5857 30 21.4214 29.6049 22.0376 28.9016C22.6538 28.1984 23 27.2446 23 26.25V6.5625C23 5.56794 22.6538 4.61411 22.0376 3.91085C21.4214 3.20759 20.5857 2.8125 19.7143 2.8125H18.0714V4.6875H19.7143C20.15 4.6875 20.5679 4.88504 20.876 5.23667C21.1841 5.58831 21.3571 6.06522 21.3571 6.5625V26.25C21.3571 26.7473 21.1841 27.2242 20.876 27.5758C20.5679 27.9275 20.15 28.125 19.7143 28.125H3.28571C2.85 28.125 2.43213 27.9275 2.12404 27.5758C1.81594 27.2242 1.64286 26.7473 1.64286 26.25V6.5625C1.64286 6.06522 1.81594 5.58831 2.12404 5.23667C2.43213 4.88504 2.85 4.6875 3.28571 4.6875H4.92857V2.8125Z" fill="white"/>
<path d="M13.9643 1.875C14.1821 1.875 14.3911 1.97377 14.5451 2.14959C14.6992 2.3254 14.7857 2.56386 14.7857 2.8125V4.6875C14.7857 4.93614 14.6992 5.1746 14.5451 5.35041C14.3911 5.52623 14.1821 5.625 13.9643 5.625H9.0357C8.81784 5.625 8.60891 5.52623 8.45486 5.35041C8.30081 5.1746 8.21427 4.93614 8.21427 4.6875V2.8125C8.21427 2.56386 8.30081 2.3254 8.45486 2.14959C8.60891 1.97377 8.81784 1.875 9.0357 1.875H13.9643ZM9.0357 0C8.38213 0 7.75533 0.296316 7.29318 0.823762C6.83104 1.35121 6.57141 2.06658 6.57141 2.8125V4.6875C6.57141 5.43342 6.83104 6.14879 7.29318 6.67624C7.75533 7.20368 8.38213 7.5 9.0357 7.5H13.9643C14.6178 7.5 15.2446 7.20368 15.7068 6.67624C16.1689 6.14879 16.4286 5.43342 16.4286 4.6875V2.8125C16.4286 2.06658 16.1689 1.35121 15.7068 0.823762C15.2446 0.296316 14.6178 0 13.9643 0L9.0357 0Z" fill="white"/>
</svg>
