<svg width="23" height="23" viewBox="0 0 23 23" fill="none" xmlns="http://www.w3.org/2000/svg">
<path d="M11.5 21.5625C8.83126 21.5625 6.27182 20.5023 4.38474 18.6153C2.49765 16.7282 1.4375 14.1687 1.4375 11.5C1.4375 8.83126 2.49765 6.27182 4.38474 4.38474C6.27182 2.49765 8.83126 1.4375 11.5 1.4375C14.1687 1.4375 16.7282 2.49765 18.6153 4.38474C20.5023 6.27182 21.5625 8.83126 21.5625 11.5C21.5625 14.1687 20.5023 16.7282 18.6153 18.6153C16.7282 20.5023 14.1687 21.5625 11.5 21.5625ZM11.5 23C14.55 23 17.4751 21.7884 19.6317 19.6317C21.7884 17.4751 23 14.55 23 11.5C23 8.45001 21.7884 5.52494 19.6317 3.36827C17.4751 1.2116 14.55 0 11.5 0C8.45001 0 5.52494 1.2116 3.36827 3.36827C1.2116 5.52494 0 8.45001 0 11.5C0 14.55 1.2116 17.4751 3.36827 19.6317C5.52494 21.7884 8.45001 23 11.5 23Z" fill="white"/>
<path d="M6.67863 6.67857C6.74539 6.61163 6.82471 6.55853 6.91203 6.52229C6.99935 6.48606 7.09296 6.46741 7.1875 6.46741C7.28204 6.46741 7.37566 6.48606 7.46298 6.52229C7.5503 6.55853 7.62961 6.61163 7.69638 6.67857L11.5 10.4836L15.3036 6.67857C15.3705 6.61174 15.4498 6.55873 15.5371 6.52256C15.6244 6.4864 15.718 6.46778 15.8125 6.46778C15.907 6.46778 16.0006 6.4864 16.0879 6.52256C16.1752 6.55873 16.2546 6.61174 16.3214 6.67857C16.3882 6.74539 16.4412 6.82473 16.4774 6.91204C16.5135 6.99935 16.5322 7.09293 16.5322 7.18744C16.5322 7.28195 16.5135 7.37553 16.4774 7.46284C16.4412 7.55016 16.3882 7.62949 16.3214 7.69632L12.5163 11.4999L16.3214 15.3036C16.3882 15.3704 16.4412 15.4497 16.4774 15.537C16.5135 15.6244 16.5322 15.7179 16.5322 15.8124C16.5322 15.9069 16.5135 16.0005 16.4774 16.0878C16.4412 16.1752 16.3882 16.2545 16.3214 16.3213C16.2546 16.3881 16.1752 16.4412 16.0879 16.4773C16.0006 16.5135 15.907 16.5321 15.8125 16.5321C15.718 16.5321 15.6244 16.5135 15.5371 16.4773C15.4498 16.4412 15.3705 16.3881 15.3036 16.3213L11.5 12.5163L7.69638 16.3213C7.62955 16.3881 7.55022 16.4412 7.4629 16.4773C7.37559 16.5135 7.28201 16.5321 7.1875 16.5321C7.093 16.5321 6.99941 16.5135 6.9121 16.4773C6.82479 16.4412 6.74545 16.3881 6.67863 16.3213C6.6118 16.2545 6.55879 16.1752 6.52263 16.0878C6.48646 16.0005 6.46784 15.9069 6.46784 15.8124C6.46784 15.7179 6.48646 15.6244 6.52263 15.537C6.55879 15.4497 6.6118 15.3704 6.67863 15.3036L10.4837 11.4999L6.67863 7.69632C6.61169 7.62955 6.55859 7.55024 6.52235 7.46292C6.48612 7.37559 6.46747 7.28198 6.46747 7.18744C6.46747 7.0929 6.48612 6.99929 6.52235 6.91197C6.55859 6.82465 6.61169 6.74533 6.67863 6.67857Z" fill="white"/>
</svg>
