<svg width="23" height="23" viewBox="0 0 23 23" fill="none" xmlns="http://www.w3.org/2000/svg">
<path d="M0 1.64286C0 1.20714 0.15145 0.789277 0.421034 0.481182C0.690618 0.173086 1.05625 0 1.4375 0H21.5625C21.9437 0 22.3094 0.173086 22.579 0.481182C22.8485 0.789277 23 1.20714 23 1.64286V21.3571C23 21.7929 22.8485 22.2107 22.579 22.5188C22.3094 22.8269 21.9437 23 21.5625 23H1.4375C1.05625 23 0.690618 22.8269 0.421034 22.5188C0.15145 22.2107 0 21.7929 0 21.3571V1.64286ZM12.2188 1.64286V14.7857H21.5625V1.64286H12.2188ZM12.2188 16.4286V21.3571H21.5625V16.4286H12.2188ZM10.7812 1.64286H1.4375V6.57143H10.7812V1.64286ZM1.4375 21.3571H10.7812V8.21429H1.4375V21.3571Z" fill="white"/>
</svg>
