<svg width="23" height="30" viewBox="0 0 23 30" fill="none" xmlns="http://www.w3.org/2000/svg">
<path d="M16.9702 11.5237C17.0594 11.6108 17.1302 11.7143 17.1786 11.8282C17.2269 11.9421 17.2517 12.0642 17.2517 12.1875C17.2517 12.3108 17.2269 12.4329 17.1786 12.5468C17.1302 12.6607 17.0594 12.7641 16.9702 12.8512L11.2202 18.4762C11.1312 18.5635 11.0254 18.6328 10.909 18.6801C10.7926 18.7273 10.6678 18.7516 10.5417 18.7516C10.4156 18.7516 10.2908 18.7273 10.1744 18.6801C10.058 18.6328 9.95222 18.5635 9.8632 18.4762L6.9882 15.6637C6.8991 15.5766 6.82842 15.4731 6.78019 15.3592C6.73197 15.2453 6.70715 15.1232 6.70715 15C6.70715 14.8767 6.73197 14.7546 6.78019 14.6407C6.82842 14.5269 6.8991 14.4234 6.9882 14.3362C7.0773 14.2491 7.18308 14.1799 7.2995 14.1327C7.41591 14.0856 7.54069 14.0613 7.6667 14.0613C7.79271 14.0613 7.91748 14.0856 8.0339 14.1327C8.15032 14.1799 8.2561 14.2491 8.3452 14.3362L10.5417 16.4868L15.6132 11.5237C15.7022 11.4364 15.808 11.3671 15.9244 11.3199C16.0408 11.2726 16.1656 11.2483 16.2917 11.2483C16.4178 11.2483 16.5426 11.2726 16.659 11.3199C16.7754 11.3671 16.8812 11.4364 16.9702 11.5237Z" fill="white"/>
<path d="M3.83333 0C2.81667 0 1.84165 0.395088 1.12276 1.09835C0.403868 1.80161 0 2.75544 0 3.75V26.25C0 27.2446 0.403868 28.1984 1.12276 28.9016C1.84165 29.6049 2.81667 30 3.83333 30H19.1667C20.1833 30 21.1584 29.6049 21.8772 28.9016C22.5961 28.1984 23 27.2446 23 26.25V3.75C23 2.75544 22.5961 1.80161 21.8772 1.09835C21.1584 0.395088 20.1833 0 19.1667 0L3.83333 0ZM3.83333 1.875H19.1667C19.675 1.875 20.1625 2.07254 20.522 2.42417C20.8814 2.77581 21.0833 3.25272 21.0833 3.75V26.25C21.0833 26.7473 20.8814 27.2242 20.522 27.5758C20.1625 27.9275 19.675 28.125 19.1667 28.125H3.83333C3.325 28.125 2.83749 27.9275 2.47805 27.5758C2.1186 27.2242 1.91667 26.7473 1.91667 26.25V3.75C1.91667 3.25272 2.1186 2.77581 2.47805 2.42417C2.83749 2.07254 3.325 1.875 3.83333 1.875Z" fill="white"/>
</svg>
