<svg width="30" height="30" viewBox="0 0 30 30" fill="none" xmlns="http://www.w3.org/2000/svg">
<path d="M22.7724 0.275414C22.8595 0.188112 22.9629 0.118847 23.0768 0.0715867C23.1907 0.0243267 23.3128 0 23.4361 0C23.5594 0 23.6815 0.0243267 23.7954 0.0715867C23.9093 0.118847 24.0128 0.188112 24.0998 0.275414L29.7246 5.90017C29.8119 5.98725 29.8812 6.0907 29.9284 6.20459C29.9757 6.31848 30 6.44058 30 6.56389C30 6.6872 29.9757 6.80929 29.9284 6.92319C29.8812 7.03708 29.8119 7.14053 29.7246 7.22761L10.9754 25.9768C10.8854 26.0661 10.7783 26.1363 10.6604 26.183L1.28583 29.9329C1.11547 30.0011 0.928838 30.0178 0.749078 29.9809C0.569317 29.944 0.404332 29.8552 0.274576 29.7254C0.144819 29.5957 0.0559978 29.4307 0.019123 29.2509C-0.0177519 29.0712 -0.00105857 28.8845 0.0671335 28.7142L3.81697 19.3396C3.86371 19.2217 3.93387 19.1146 4.02321 19.0246L22.7724 0.275414ZM21.0118 4.68897L25.311 8.98816L27.7353 6.56389L23.4361 2.2647L21.0118 4.68897ZM23.9855 10.3137L19.6863 6.01454L7.49931 18.2015V18.7509H8.43677C8.6854 18.7509 8.92384 18.8496 9.09965 19.0254C9.27546 19.2012 9.37423 19.4397 9.37423 19.6883V20.6258H10.3117C10.5603 20.6258 10.7988 20.7245 10.9746 20.9003C11.1504 21.0762 11.2491 21.3146 11.2491 21.5632V22.5007H11.7985L23.9855 10.3137ZM5.68439 20.0164L5.48565 20.2152L2.62077 27.3792L9.78483 24.5144L9.98357 24.3156C9.80474 24.2488 9.65058 24.129 9.54168 23.9722C9.43279 23.8154 9.37437 23.6291 9.37423 23.4382V22.5007H8.43677C8.18814 22.5007 7.94969 22.4019 7.77388 22.2261C7.59808 22.0503 7.49931 21.8119 7.49931 21.5632V20.6258H6.56185C6.37094 20.6256 6.18463 20.5672 6.02783 20.4583C5.87103 20.3494 5.7512 20.1953 5.68439 20.0164Z" fill="#00075D"/>
</svg>
