<?xml version="1.0" encoding="UTF-8"?>
<svg version="1.1" xmlns="http://www.w3.org/2000/svg" width="164" height="108">
<path d="M0 0 C2.97 0 5.94 0 9 0 C9 1.32 9 2.64 9 4 C7.68 4 6.36 4 5 4 C5 4.99 5 5.98 5 7 C6.32 7 7.64 7 9 7 C9 8.65 9 10.3 9 12 C7.68 12 6.36 12 5 12 C5 13.32 5 14.64 5 16 C6.65 16 8.3 16 10 16 C10 10.72 10 5.44 10 0 C11.65 0 13.3 0 15 0 C15 5.28 15 10.56 15 16 C16.65 16 18.3 16 20 16 C20 12.04 20 8.08 20 4 C18.68 3.67 17.36 3.34 16 3 C16.33 2.01 16.66 1.02 17 0 C24.26 0 31.52 0 39 0 C39.495 1.485 39.495 1.485 40 3 C40.33 2.01 40.66 1.02 41 0 C42.98 0 44.96 0 47 0 C46.76023438 0.68964844 46.52046875 1.37929688 46.2734375 2.08984375 C44.13007889 8.88335865 43.85645309 13.2631383 46 20 C46.38348828 21.51871517 46.75894306 23.03948938 47.125 24.5625 C47.41375 25.696875 47.7025 26.83125 48 28 C42.25 26.375 42.25 26.375 40 23 C39.38125 23.185625 38.7625 23.37125 38.125 23.5625 C36 24 36 24 34 23 C34.16757813 22.13117188 34.33515625 21.26234375 34.5078125 20.3671875 C34.71148437 19.21476562 34.91515625 18.06234375 35.125 16.875 C35.33382812 15.73804687 35.54265625 14.60109375 35.7578125 13.4296875 C36.25546041 9.49215733 36.25546041 9.49215733 34 4 C33.67 10.27 33.34 16.54 33 23 C31.35 22.34 29.7 21.68 28 21 C28 15.72 28 10.44 28 5 C27.01 5 26.02 5 25 5 C25 10.28 25 15.56 25 21 C16.75 21 8.5 21 0 21 C0 14.07 0 7.14 0 0 Z " fill="#F29913" transform="translate(70,58)"/>
<path d="M0 0 C-0.165 0.495 -0.33 0.99 -0.5 1.5 C-1.49534874 6.47674372 -1.76233339 10.47533323 0.5 15 C0.995 15.66 1.49 16.32 2 17 C2.33 15.68 2.66 14.36 3 13 C6.79007726 14.26335909 7.18073712 15.53259742 9.125 18.9375 C9.64320312 19.83339844 10.16140625 20.72929688 10.6953125 21.65234375 C13.40191066 26.52259972 13.48457624 30.45712794 13 36 C11.45771534 40.11275909 10.66328593 41.55780938 7 44 C6.67 43.01 6.34 42.02 6 41 C5.01 41 4.02 41 3 41 C2.67 40.01 2.34 39.02 2 38 C1.54625 38.66 1.0925 39.32 0.625 40 C0.08875 40.66 -0.4475 41.32 -1 42 C-1.66 42 -2.32 42 -3 42 C-3 38.04 -3 34.08 -3 30 C-4.98 32.31 -6.96 34.62 -9 37 C-9.99 36.67 -10.98 36.34 -12 36 C-12.33 35.34 -12.66 34.68 -13 34 C-13.72256829 38.48133574 -13.72256829 38.48133574 -14 43 C-15.8125 42.875 -15.8125 42.875 -18 42 C-21.29906354 37.28705209 -21.91674929 32.57769566 -21 27 C-19.89676671 24.39235767 -18.60598949 22.35879707 -17 20 C-16.34 20 -15.68 20 -15 20 C-13.375 22 -13.375 22 -12 24 C-10.18529401 22.18529401 -10.74125018 19.26205735 -10.625 16.8125 C-10.15296567 10.27553976 -9.36586898 6.19275662 -4.4375 1.625 C-2 0 -2 0 0 0 Z " fill="#F89B0C" transform="translate(86,13)"/>
<path d="M0 0 C4.95 0 9.9 0 15 0 C15 5.94 15 11.88 15 18 C15.66 18 16.32 18 17 18 C17 12.06 17 6.12 17 0 C18.65 0 20.3 0 22 0 C22 6.93 22 13.86 22 21 C15 23 15 23 11 23 C10.34 20.36 9.68 17.72 9 15 C7.68 15 6.36 15 5 15 C5 18.63 5 22.26 5 26 C3.35 26.66 1.7 27.32 0 28 C0 18.76 0 9.52 0 0 Z M5 5 C5 6.65 5 8.3 5 10 C6.65 9.67 8.3 9.34 10 9 C10 7.68 10 6.36 10 5 C8.35 5 6.7 5 5 5 Z " fill="#F19A15" transform="translate(47,58)"/>
<path d="M0 0 C4 2 4 2 6 5 C6 6.32 6 7.64 6 9 C7.32 9.33 8.64 9.66 10 10 C10 10.99 10 11.98 10 13 C12.31 12.34 14.62 11.68 17 11 C16.87952582 16.02705917 16.75412763 19.09872551 13.4375 23.0625 C12.633125 23.701875 11.82875 24.34125 11 25 C10.67 24.01 10.34 23.02 10 22 C9.01 22 8.02 22 7 22 C6.67 21.01 6.34 20.02 6 19 C5.54625 19.66 5.0925 20.32 4.625 21 C4.08875 21.66 3.5525 22.32 3 23 C2.34 23 1.68 23 1 23 C1 19.04 1 15.08 1 11 C-0.98 13.31 -2.96 15.62 -5 18 C-5.99 17.67 -6.98 17.34 -8 17 C-8.33 16.34 -8.66 15.68 -9 15 C-9.72256829 19.48133574 -9.72256829 19.48133574 -10 24 C-11.8125 23.875 -11.8125 23.875 -14 23 C-16.66280693 18.91068936 -17.34568576 15.83960066 -17 11 C-13 10 -9 9 -5 8 C-4.67 8.66 -4.34 9.32 -4 10 C-2.68 6.7 -1.36 3.4 0 0 Z " fill="#E96037" transform="translate(82,32)"/>
<path d="M0 0 C2.97 0 5.94 0 9 0 C9 1.32 9 2.64 9 4 C7.68 4 6.36 4 5 4 C5 4.99 5 5.98 5 7 C6.32 7 7.64 7 9 7 C9 8.65 9 10.3 9 12 C7.68 12 6.36 12 5 12 C5 13.32 5 14.64 5 16 C6.65 16 8.3 16 10 16 C10 10.72 10 5.44 10 0 C11.65 0 13.3 0 15 0 C15 5.28 15 10.56 15 16 C16.65 16 18.3 16 20 16 C20 14.68 20 13.36 20 12 C21.65 12 23.3 12 25 12 C25 14.97 25 17.94 25 21 C16.75 21 8.5 21 0 21 C0 14.07 0 7.14 0 0 Z " fill="#DE543F" transform="translate(70,58)"/>
<path d="M0 0 C1.74991334 -0.02715383 3.49994945 -0.04646551 5.25 -0.0625 C6.71179688 -0.07990234 6.71179688 -0.07990234 8.203125 -0.09765625 C10.65758678 -0.01195577 12.66168914 0.29293934 15 1 C14.98839844 1.78246094 14.97679688 2.56492188 14.96484375 3.37109375 C14.95582031 4.38300781 14.94679688 5.39492188 14.9375 6.4375 C14.92589844 7.44683594 14.91429688 8.45617187 14.90234375 9.49609375 C14.71387324 11.94021067 14.71387324 11.94021067 16 13 C16.07205511 14.68608966 16.08386068 16.37500659 16.0625 18.0625 C16.05347656 18.98160156 16.04445313 19.90070313 16.03515625 20.84765625 C16.02355469 21.55792969 16.01195313 22.26820312 16 23 C13.525 22.01 13.525 22.01 11 21 C11 15.72 11 10.44 11 5 C10.01 5 9.02 5 8 5 C8 7.31 8 9.62 8 12 C6.35 12 4.7 12 3 12 C3 9.36 3 6.72 3 4 C1.68 3.67 0.36 3.34 -1 3 C-0.67 2.01 -0.34 1.02 0 0 Z " fill="#EC9212" transform="translate(87,58)"/>
<path d="M0 0 C1.65 0 3.3 0 5 0 C5 6.93 5 13.86 5 21 C-2 23 -2 23 -6 23 C-7.35091528 20.29816945 -7.33858058 17.88191794 -7.5625 14.875 C-7.64628906 13.77929688 -7.73007812 12.68359375 -7.81640625 11.5546875 C-7.87699219 10.71164063 -7.93757813 9.86859375 -8 9 C-7.34 9 -6.68 9 -6 9 C-6 10.32 -6 11.64 -6 13 C-4.68 13 -3.36 13 -2 13 C-2 14.65 -2 16.3 -2 18 C-1.34 18 -0.68 18 0 18 C0 12.06 0 6.12 0 0 Z " fill="#E36446" transform="translate(64,58)"/>
<path d="M0 0 C4.62 0 9.24 0 14 0 C14 4.29 14 8.58 14 13 C12.68 13 11.36 13 10 13 C9.67 10.36 9.34 7.72 9 5 C6.36 5.66 3.72 6.32 1 7 C0.67 4.69 0.34 2.38 0 0 Z " fill="#F09B1D" transform="translate(48,58)"/>
<path d="M0 0 C2.31 0.66 4.62 1.32 7 2 C7.33 1.34 7.66 0.68 8 0 C8.67031719 1.9570868 9.33614683 3.91571113 10 5.875 C10.556875 7.51082031 10.556875 7.51082031 11.125 9.1796875 C12 12 12 12 12 14 C6.25 12.375 6.25 12.375 4 9 C3.38125 9.185625 2.7625 9.37125 2.125 9.5625 C0 10 0 10 -2 9 C-1.34 6.03 -0.68 3.06 0 0 Z " fill="#E7573D" transform="translate(106,72)"/>
<path d="M0 0 C2.97 0 5.94 0 9 0 C9 1.32 9 2.64 9 4 C7.68 4 6.36 4 5 4 C5 4.99 5 5.98 5 7 C6.32 7 7.64 7 9 7 C9 8.65 9 10.3 9 12 C6.03 12 3.06 12 0 12 C0 8.04 0 4.08 0 0 Z " fill="#F49A10" transform="translate(70,58)"/>
<path d="M0 0 C1.65 0 3.3 0 5 0 C5 1.65 5 3.3 5 5 C6.32 5 7.64 5 9 5 C9 5.99 9 6.98 9 8 C4.545 8.495 4.545 8.495 0 9 C0 6.03 0 3.06 0 0 Z " fill="#F35235" transform="translate(70,70)"/>
<path d="M0 0 C1.65 0 3.3 0 5 0 C5 3.63 5 7.26 5 11 C3.35 11 1.7 11 0 11 C0 7.37 0 3.74 0 0 Z " fill="#F9A011" transform="translate(80,58)"/>
<path d="M0 0 C0 3.3 0 6.6 0 10 C-1.65 10.66 -3.3 11.32 -5 12 C-5 8.37 -5 4.74 -5 1 C-3 0 -3 0 0 0 Z " fill="#EA543A" transform="translate(52,74)"/>
<path d="M0 0 C0.66 0 1.32 0 2 0 C2 1.32 2 2.64 2 4 C3.32 4 4.64 4 6 4 C6 7.33333333 6 10.66666667 6 14 C4.68 14 3.36 14 2 14 C0.64908472 11.29816945 0.66141942 8.88191794 0.4375 5.875 C0.35371094 4.77929688 0.26992188 3.68359375 0.18359375 2.5546875 C0.12300781 1.71164063 0.06242187 0.86859375 0 0 Z " fill="#E75B3B" transform="translate(56,67)"/>
<path d="M0 0 C1.32 0 2.64 0 4 0 C4 3.96 4 7.92 4 12 C2.68 12 1.36 12 0 12 C0 8.04 0 4.08 0 0 Z " fill="#F59E0D" transform="translate(65,58)"/>
<path d="M0 0 C1.65 0 3.3 0 5 0 C5 3.3 5 6.6 5 10 C2.525 9.01 2.525 9.01 0 8 C0 5.36 0 2.72 0 0 Z " fill="#EA5438" transform="translate(98,71)"/>
<path d="M0 0 C-0.66 2.64 -1.32 5.28 -2 8 C-3.98 8 -5.96 8 -8 8 C-8.33 9.65 -8.66 11.3 -9 13 C-10 10 -10 10 -8.875 7.0625 C-6.79242593 3.66096235 -4.32430396 0 0 0 Z " fill="#EB9A27" transform="translate(86,13)"/>
<path d="M0 0 C1.32 0 2.64 0 4 0 C4 1.98 4 3.96 4 6 C5.32 6 6.64 6 8 6 C8 6.66 8 7.32 8 8 C5.36 8 2.72 8 0 8 C0 5.36 0 2.72 0 0 Z " fill="#F8542F" transform="translate(81,69)"/>
<path d="M0 0 C1.6875 1.1875 1.6875 1.1875 3 3 C2.6875 5.6875 2.6875 5.6875 2 8 C1.67 7.34 1.34 6.68 1 6 C0.01 6.33 -0.98 6.66 -2 7 C-2 6.01 -2 5.02 -2 4 C-4.97 4 -7.94 4 -11 4 C-11 3.67 -11 3.34 -11 3 C-9.54293274 2.49632243 -8.08429904 1.99717444 -6.625 1.5 C-5.81289062 1.2215625 -5.00078125 0.943125 -4.1640625 0.65625 C-2 0 -2 0 0 0 Z " fill="#EF6B2B" transform="translate(77,40)"/>
<path d="M0 0 C1.32 0 2.64 0 4 0 C4 2.97 4 5.94 4 9 C2.68 9 1.36 9 0 9 C0 6.03 0 3.06 0 0 Z " fill="#EE5237" transform="translate(91,70)"/>
<path d="M0 0 C0.99 0 1.98 0 3 0 C3 3.96 3 7.92 3 12 C2.01 12 1.02 12 0 12 C0 8.04 0 4.08 0 0 Z " fill="#FCA005" transform="translate(58,59)"/>
<path d="M0 0 C3.42054006 1.14018002 4.2426201 1.92458518 6 5 C5.6875 7.25 5.6875 7.25 5 9 C5 8.34 5 7.68 5 7 C3.35 7.33 1.7 7.66 0 8 C-1.43088528 5.13822943 -0.59991697 3.06624227 0 0 Z " fill="#EE9D1D" transform="translate(89,26)"/>
<path d="M0 0 C1.32 0 2.64 0 4 0 C4 3.63 4 7.26 4 11 C2.68 11.33 1.36 11.66 0 12 C0.66 8.37 1.32 4.74 2 1 C1.34 0.67 0.68 0.34 0 0 Z " fill="#FAA407" transform="translate(98,59)"/>
<path d="M0 0 C0 1.98 0 3.96 0 6 C-1.65 6.33 -3.3 6.66 -5 7 C-5.33 6.01 -5.66 5.02 -6 4 C-4.68 4 -3.36 4 -2 4 C-2 3.34 -2 2.68 -2 2 C-3.32 2.33 -4.64 2.66 -6 3 C-6 2.34 -6 1.68 -6 1 C-3.92446352 0.4465236 -2.15634036 0 0 0 Z " fill="#A48971" transform="translate(85,80)"/>
<path d="M0 0 C2.97 0.495 2.97 0.495 6 1 C6.33 2.98 6.66 4.96 7 7 C6.34 7 5.68 7 5 7 C5 6.01 5 5.02 5 4 C3.35 3.67 1.7 3.34 0 3 C0 2.01 0 1.02 0 0 Z " fill="#F75431" transform="translate(107,73)"/>
<path d="M0 0 C1.32 0 2.64 0 4 0 C4.33 0.66 4.66 1.32 5 2 C5.66 2 6.32 2 7 2 C6.67 3.32 6.34 4.64 6 6 C5.01 5.67 4.02 5.34 3 5 C2.67 4.34 2.34 3.68 2 3 C1.34 3.66 0.68 4.32 0 5 C0 3.35 0 1.7 0 0 Z " fill="#E0613F" transform="translate(71,44)"/>
<path d="M0 0 C1.32 0.33 2.64 0.66 4 1 C3.67 3.31 3.34 5.62 3 8 C1 7 1 7 0 6 C-0.04080783 4.00041636 -0.04254356 1.99954746 0 0 Z " fill="#F65730" transform="translate(65,70)"/>
<path d="M0 0 C-1.625 5.75 -1.625 5.75 -5 8 C-5.36625971 3.48279689 -5.36625971 3.48279689 -3.625 1.1875 C-2 0 -2 0 0 0 Z " fill="#DD6342" transform="translate(84,39)"/>
<path d="M0 0 C1.32 0.66 2.64 1.32 4 2 C3.67 3.65 3.34 5.3 3 7 C2.67 6.34 2.34 5.68 2 5 C1.01 5.33 0.02 5.66 -1 6 C-0.67 4.02 -0.34 2.04 0 0 Z " fill="#ED6134" transform="translate(76,41)"/>
</svg>
