<svg width="23" height="17" viewBox="0 0 23 17" fill="none" xmlns="http://www.w3.org/2000/svg">
<path fill-rule="evenodd" clip-rule="evenodd" d="M8.69381 14.875C8.69381 15.0629 8.76917 15.243 8.90332 15.3759C9.03746 15.5087 9.2194 15.5833 9.40912 15.5833H20.8541C21.0438 15.5833 21.2257 15.5087 21.3599 15.3759C21.494 15.243 21.5694 15.0629 21.5694 14.875V2.125C21.5694 1.93714 21.494 1.75697 21.3599 1.62413C21.2257 1.49129 21.0438 1.41667 20.8541 1.41667H9.40912C9.2194 1.41667 9.03746 1.49129 8.90332 1.62413C8.76917 1.75697 8.69381 1.93714 8.69381 2.125V4.95833C8.69381 5.14619 8.61844 5.32636 8.4843 5.4592C8.35015 5.59204 8.16821 5.66667 7.97849 5.66667C7.78878 5.66667 7.60684 5.59204 7.47269 5.4592C7.33855 5.32636 7.26318 5.14619 7.26318 4.95833V2.125C7.26318 1.56141 7.48927 1.02091 7.89171 0.622398C8.29415 0.223883 8.83998 0 9.40912 0H20.8541C21.4232 0 21.9691 0.223883 22.3715 0.622398C22.7739 1.02091 23 1.56141 23 2.125V14.875C23 15.4386 22.7739 15.9791 22.3715 16.3776C21.9691 16.7761 21.4232 17 20.8541 17H9.40912C8.83998 17 8.29415 16.7761 7.89171 16.3776C7.48927 15.9791 7.26318 15.4386 7.26318 14.875V12.0417C7.26318 11.8538 7.33855 11.6736 7.47269 11.5408C7.60684 11.408 7.78878 11.3333 7.97849 11.3333C8.16821 11.3333 8.35015 11.408 8.4843 11.5408C8.61844 11.6736 8.69381 11.8538 8.69381 12.0417V14.875Z" fill="white"/>
<path fill-rule="evenodd" clip-rule="evenodd" d="M0.210132 9.09505C0.143523 9.01698 0.0906765 8.92422 0.0546185 8.82211C0.0185605 8.72 0 8.61053 0 8.49997C0 8.38942 0.0185605 8.27995 0.0546185 8.17783C0.0906765 8.07572 0.143523 7.98297 0.210132 7.90489L4.50165 2.86185C4.56815 2.7837 4.6471 2.72171 4.73399 2.67942C4.82088 2.63712 4.914 2.61536 5.00805 2.61536C5.1021 2.61536 5.19522 2.63712 5.28211 2.67942C5.369 2.72171 5.44795 2.7837 5.51445 2.86185C5.58095 2.93999 5.6337 3.03277 5.66969 3.13487C5.70568 3.23698 5.72421 3.34641 5.72421 3.45693C5.72421 3.56744 5.70568 3.67688 5.66969 3.77898C5.6337 3.88109 5.58095 3.97386 5.51445 4.05201L2.44315 7.65946H15.0216C15.2113 7.65946 15.3932 7.74802 15.5273 7.90564C15.6615 8.06327 15.7368 8.27706 15.7368 8.49997C15.7368 8.72289 15.6615 8.93668 15.5273 9.0943C15.3932 9.25193 15.2113 9.34048 15.0216 9.34048H2.44315L5.51445 12.9479C5.58095 13.0261 5.6337 13.1189 5.66969 13.221C5.70568 13.3231 5.72421 13.4325 5.72421 13.543C5.72421 13.6535 5.70568 13.763 5.66969 13.8651C5.6337 13.9672 5.58095 14.06 5.51445 14.1381C5.44795 14.2162 5.369 14.2782 5.28211 14.3205C5.19522 14.3628 5.1021 14.3846 5.00805 14.3846C4.914 14.3846 4.82088 14.3628 4.73399 14.3205C4.6471 14.2782 4.56815 14.2162 4.50165 14.1381L0.210132 9.09505Z" fill="white"/>
</svg>
