<svg width="30" height="30" viewBox="0 0 30 30" fill="none" xmlns="http://www.w3.org/2000/svg">
<path d="M9.375 0C8.38044 0 7.42661 0.451529 6.72335 1.25526C6.02009 2.05898 5.625 3.14907 5.625 4.28571V8.57143H3.75C2.75544 8.57143 1.80161 9.02296 1.09835 9.82669C0.395088 10.6304 0 11.7205 0 12.8571L0 19.2857C0 20.4224 0.395088 21.5124 1.09835 22.3162C1.80161 23.1199 2.75544 23.5714 3.75 23.5714H5.625V25.7143C5.625 26.8509 6.02009 27.941 6.72335 28.7447C7.42661 29.5485 8.38044 30 9.375 30H20.625C21.6196 30 22.5734 29.5485 23.2766 28.7447C23.9799 27.941 24.375 26.8509 24.375 25.7143V23.5714H26.25C27.2446 23.5714 28.1984 23.1199 28.9016 22.3162C29.6049 21.5124 30 20.4224 30 19.2857V12.8571C30 11.7205 29.6049 10.6304 28.9016 9.82669C28.1984 9.02296 27.2446 8.57143 26.25 8.57143H24.375V4.28571C24.375 3.14907 23.9799 2.05898 23.2766 1.25526C22.5734 0.451529 21.6196 0 20.625 0H9.375ZM7.5 4.28571C7.5 3.71739 7.69754 3.17235 8.04918 2.77049C8.40081 2.36862 8.87772 2.14286 9.375 2.14286H20.625C21.1223 2.14286 21.5992 2.36862 21.9508 2.77049C22.3025 3.17235 22.5 3.71739 22.5 4.28571V8.57143H7.5V4.28571ZM9.375 15C8.38044 15 7.42661 15.4515 6.72335 16.2553C6.02009 17.059 5.625 18.1491 5.625 19.2857V21.4286H3.75C3.25272 21.4286 2.77581 21.2028 2.42417 20.8009C2.07254 20.3991 1.875 19.854 1.875 19.2857V12.8571C1.875 12.2888 2.07254 11.7438 2.42417 11.3419C2.77581 10.9401 3.25272 10.7143 3.75 10.7143H26.25C26.7473 10.7143 27.2242 10.9401 27.5758 11.3419C27.9275 11.7438 28.125 12.2888 28.125 12.8571V19.2857C28.125 19.854 27.9275 20.3991 27.5758 20.8009C27.2242 21.2028 26.7473 21.4286 26.25 21.4286H24.375V19.2857C24.375 18.1491 23.9799 17.059 23.2766 16.2553C22.5734 15.4515 21.6196 15 20.625 15H9.375ZM22.5 19.2857V25.7143C22.5 26.2826 22.3025 26.8277 21.9508 27.2295C21.5992 27.6314 21.1223 27.8571 20.625 27.8571H9.375C8.87772 27.8571 8.40081 27.6314 8.04918 27.2295C7.69754 26.8277 7.5 26.2826 7.5 25.7143V19.2857C7.5 18.7174 7.69754 18.1723 8.04918 17.7705C8.40081 17.3686 8.87772 17.1429 9.375 17.1429H20.625C21.1223 17.1429 21.5992 17.3686 21.9508 17.7705C22.3025 18.1723 22.5 18.7174 22.5 19.2857Z" fill="#00075D"/>
</svg>
