<svg width="23" height="30" viewBox="0 0 23 30" fill="none" xmlns="http://www.w3.org/2000/svg">
<path d="M5.75002 7.5C5.49585 7.5 5.2521 7.59877 5.07238 7.77459C4.89265 7.9504 4.79169 8.18886 4.79169 8.4375C4.79169 8.68614 4.89265 8.9246 5.07238 9.10041C5.2521 9.27623 5.49585 9.375 5.75002 9.375H17.25C17.5042 9.375 17.7479 9.27623 17.9277 9.10041C18.1074 8.9246 18.2084 8.68614 18.2084 8.4375C18.2084 8.18886 18.1074 7.9504 17.9277 7.77459C17.7479 7.59877 17.5042 7.5 17.25 7.5H5.75002ZM4.79169 12.1875C4.79169 11.9389 4.89265 11.7004 5.07238 11.5246C5.2521 11.3488 5.49585 11.25 5.75002 11.25H17.25C17.5042 11.25 17.7479 11.3488 17.9277 11.5246C18.1074 11.7004 18.2084 11.9389 18.2084 12.1875C18.2084 12.4361 18.1074 12.6746 17.9277 12.8504C17.7479 13.0262 17.5042 13.125 17.25 13.125H5.75002C5.49585 13.125 5.2521 13.0262 5.07238 12.8504C4.89265 12.6746 4.79169 12.4361 4.79169 12.1875ZM5.75002 15C5.49585 15 5.2521 15.0988 5.07238 15.2746C4.89265 15.4504 4.79169 15.6889 4.79169 15.9375C4.79169 16.1861 4.89265 16.4246 5.07238 16.6004C5.2521 16.7762 5.49585 16.875 5.75002 16.875H17.25C17.5042 16.875 17.7479 16.7762 17.9277 16.6004C18.1074 16.4246 18.2084 16.1861 18.2084 15.9375C18.2084 15.6889 18.1074 15.4504 17.9277 15.2746C17.7479 15.0988 17.5042 15 17.25 15H5.75002ZM5.75002 18.75C5.49585 18.75 5.2521 18.8488 5.07238 19.0246C4.89265 19.2004 4.79169 19.4389 4.79169 19.6875C4.79169 19.9361 4.89265 20.1746 5.07238 20.3504C5.2521 20.5262 5.49585 20.625 5.75002 20.625H11.5C11.7542 20.625 11.9979 20.5262 12.1777 20.3504C12.3574 20.1746 12.4584 19.9361 12.4584 19.6875C12.4584 19.4389 12.3574 19.2004 12.1777 19.0246C11.9979 18.8488 11.7542 18.75 11.5 18.75H5.75002Z" fill="white"/>
<path d="M0 3.75C0 2.75544 0.403868 1.80161 1.12276 1.09835C1.84165 0.395088 2.81667 0 3.83333 0L19.1667 0C20.1833 0 21.1584 0.395088 21.8772 1.09835C22.5961 1.80161 23 2.75544 23 3.75V26.25C23 27.2446 22.5961 28.1984 21.8772 28.9016C21.1584 29.6049 20.1833 30 19.1667 30H3.83333C2.81667 30 1.84165 29.6049 1.12276 28.9016C0.403868 28.1984 0 27.2446 0 26.25V3.75ZM19.1667 1.875H3.83333C3.325 1.875 2.83749 2.07254 2.47805 2.42417C2.1186 2.77581 1.91667 3.25272 1.91667 3.75V26.25C1.91667 26.7473 2.1186 27.2242 2.47805 27.5758C2.83749 27.9275 3.325 28.125 3.83333 28.125H19.1667C19.675 28.125 20.1625 27.9275 20.522 27.5758C20.8814 27.2242 21.0833 26.7473 21.0833 26.25V3.75C21.0833 3.25272 20.8814 2.77581 20.522 2.42417C20.1625 2.07254 19.675 1.875 19.1667 1.875Z" fill="white"/>
</svg>
