<svg width="30" height="20" viewBox="0 0 30 20" fill="none" xmlns="http://www.w3.org/2000/svg">
<path d="M7.5 5C7.5 4.73478 7.59877 4.48043 7.77459 4.29289C7.9504 4.10536 8.18886 4 8.4375 4H21.5625C21.8111 4 22.0496 4.10536 22.2254 4.29289C22.4012 4.48043 22.5 4.73478 22.5 5C22.5 5.26522 22.4012 5.51957 22.2254 5.70711C22.0496 5.89464 21.8111 6 21.5625 6H8.4375C8.18886 6 7.9504 5.89464 7.77459 5.70711C7.59877 5.51957 7.5 5.26522 7.5 5ZM7.5 15C7.5 14.7348 7.59877 14.4804 7.77459 14.2929C7.9504 14.1054 8.18886 14 8.4375 14H21.5625C21.8111 14 22.0496 14.1054 22.2254 14.2929C22.4012 14.4804 22.5 14.7348 22.5 15C22.5 15.2652 22.4012 15.5196 22.2254 15.7071C22.0496 15.8946 21.8111 16 21.5625 16H8.4375C8.18886 16 7.9504 15.8946 7.77459 15.7071C7.59877 15.5196 7.5 15.2652 7.5 15ZM9.375 8C8.87772 8 8.40081 8.21071 8.04918 8.58579C7.69754 8.96086 7.5 9.46957 7.5 10C7.5 10.5304 7.69754 11.0391 8.04918 11.4142C8.40081 11.7893 8.87772 12 9.375 12H20.625C21.1223 12 21.5992 11.7893 21.9508 11.4142C22.3025 11.0391 22.5 10.5304 22.5 10C22.5 9.46957 22.3025 8.96086 21.9508 8.58579C21.5992 8.21071 21.1223 8 20.625 8H9.375Z" fill="white"/>
<path d="M0 3C0 2.20435 0.296316 1.44129 0.823762 0.87868C1.35121 0.316071 2.06658 0 2.8125 0H27.1875C27.9334 0 28.6488 0.316071 29.1762 0.87868C29.7037 1.44129 30 2.20435 30 3V6C30 6.26522 29.9012 6.51957 29.7254 6.70711C29.5496 6.89464 29.3111 7 29.0625 7C28.3166 7 27.6012 7.31607 27.0738 7.87868C26.5463 8.44129 26.25 9.20435 26.25 10C26.25 10.7956 26.5463 11.5587 27.0738 12.1213C27.6012 12.6839 28.3166 13 29.0625 13C29.3111 13 29.5496 13.1054 29.7254 13.2929C29.9012 13.4804 30 13.7348 30 14V17C30 17.7956 29.7037 18.5587 29.1762 19.1213C28.6488 19.6839 27.9334 20 27.1875 20H2.8125C2.06658 20 1.35121 19.6839 0.823762 19.1213C0.296316 18.5587 0 17.7956 0 17L0 14C0 13.7348 0.0987721 13.4804 0.274587 13.2929C0.450403 13.1054 0.68886 13 0.9375 13C1.68342 13 2.39879 12.6839 2.92624 12.1213C3.45368 11.5587 3.75 10.7956 3.75 10C3.75 9.20435 3.45368 8.44129 2.92624 7.87868C2.39879 7.31607 1.68342 7 0.9375 7C0.68886 7 0.450403 6.89464 0.274587 6.70711C0.0987721 6.51957 0 6.26522 0 6V3ZM2.8125 2C2.56386 2 2.3254 2.10536 2.14959 2.29289C1.97377 2.48043 1.875 2.73478 1.875 3V5.1C2.93465 5.32952 3.88732 5.94273 4.5716 6.83574C5.25589 7.72875 5.6297 8.84664 5.6297 10C5.6297 11.1534 5.25589 12.2712 4.5716 13.1643C3.88732 14.0573 2.93465 14.6705 1.875 14.9V17C1.875 17.2652 1.97377 17.5196 2.14959 17.7071C2.3254 17.8946 2.56386 18 2.8125 18H27.1875C27.4361 18 27.6746 17.8946 27.8504 17.7071C28.0262 17.5196 28.125 17.2652 28.125 17V14.9C27.0654 14.6705 26.1127 14.0573 25.4284 13.1643C24.7441 12.2712 24.3703 11.1534 24.3703 10C24.3703 8.84664 24.7441 7.72875 25.4284 6.83574C26.1127 5.94273 27.0654 5.32952 28.125 5.1V3C28.125 2.73478 28.0262 2.48043 27.8504 2.29289C27.6746 2.10536 27.4361 2 27.1875 2H2.8125Z" fill="white"/>
</svg>
